<svg xmlns="http://www.w3.org/2000/svg" viewBox="0 0 32 32">
  <rect width="32" height="32" rx="7" fill="#0a0a0a"/>
  <g transform="translate(6 6) scale(0.02121)" fill="#ffffff">
    <path d="M350.467,157.806 C373.18,120.678 415.153,97.807 460.578,97.807 C506.003,97.807 547.977,120.678 570.689,157.806 L880.241,663.811 C902.954,700.939 902.955,746.684 880.242,783.812 C857.53,820.94 815.555,843.812 770.129,843.812 C666.844,843.812 409.268,844.46 206.475,845.017 C149.658,845.148 97.088,816.644 68.59,770.255 C40.091,723.865 40.0,666.647 68.347,620.175 C169.791,453.795 298.775,242.302 350.467,157.806 ZM444.664,713.813 L696.72,713.813 C708.077,713.813 718.57,708.095 724.249,698.813 C729.926,689.531 729.926,678.094 724.249,668.813 L488.106,282.805 C482.429,273.523 471.934,267.805 460.578,267.805 C449.222,267.805 438.728,273.523 433.05,282.805 L307.025,488.811 C278.633,535.222 278.633,592.401 307.023,638.812 C335.414,685.222 387.883,713.813 444.664,713.813 Z"/>
  </g>
</svg>
